<?xml version="1.0" standalone="no"?>
<!DOCTYPE svg PUBLIC "-//W3C//DTD SVG 20010904//EN"
 "http://www.w3.org/TR/2001/REC-SVG-20010904/DTD/svg10.dtd">
<svg version="1.0" xmlns="http://www.w3.org/2000/svg"
 width="512.000000pt" height="512.000000pt" viewBox="0 0 512.000000 512.000000"
 preserveAspectRatio="xMidYMid meet">
<metadata>
Created by potrace 1.14, written by Peter Selinger 2001-2017
</metadata>
<g transform="translate(0.000000,512.000000) scale(0.100000,-0.100000)"
fill="#000000" stroke="none">
<path d="M2430 5117 c-5 -5 -50 -10 -185 -22 -125 -12 -180 -21 -286 -51 -47
-14 -96 -27 -108 -29 -11 -3 -30 -7 -41 -10 -11 -3 -30 -7 -42 -10 -12 -2 -26
-9 -32 -15 -5 -5 -20 -10 -31 -10 -12 0 -25 -3 -29 -7 -4 -5 -11 -8 -14 -9 -4
0 -43 -17 -87 -38 -158 -75 -182 -86 -188 -86 -3 0 -40 -20 -81 -45 -42 -25
-79 -45 -82 -45 -3 0 -10 -4 -17 -10 -7 -5 -50 -35 -96 -65 -46 -31 -90 -63
-98 -71 -8 -8 -17 -14 -21 -14 -4 0 -23 -14 -42 -31 -19 -16 -52 -44 -73 -62
-57 -48 -297 -293 -297 -303 0 -3 -6 -11 -13 -18 -6 -7 -20 -24 -29 -37 -10
-13 -36 -49 -58 -79 -22 -30 -44 -61 -50 -67 -6 -7 -15 -23 -21 -35 -5 -13
-30 -57 -54 -98 -68 -113 -169 -319 -165 -336 1 -4 -3 -10 -9 -13 -6 -4 -13
-18 -15 -31 -2 -14 -5 -26 -7 -27 -1 -2 -2 -6 -4 -10 -1 -5 -5 -16 -9 -25 -4
-9 -9 -22 -10 -30 -2 -7 -8 -24 -13 -38 -6 -14 -14 -41 -19 -60 -12 -50 -11
-50 -14 -52 -2 -4 -5 -16 -20 -88 -25 -115 -31 -146 -36 -190 -2 -25 -7 -61
-9 -80 -20 -147 -25 -381 -11 -520 4 -41 9 -97 12 -125 7 -77 15 -129 22 -140
4 -5 7 -14 7 -20 1 -13 34 -156 52 -225 8 -30 16 -62 18 -71 2 -8 10 -32 19
-52 8 -20 12 -37 9 -37 -3 0 0 -7 7 -15 7 -8 9 -15 5 -15 -4 0 -2 -7 5 -15 7
-8 10 -15 6 -15 -4 0 1 -15 11 -32 9 -18 18 -41 20 -51 2 -10 10 -29 19 -42 9
-14 12 -25 8 -25 -5 0 -4 -4 2 -8 15 -9 76 -122 67 -122 -4 0 0 -6 9 -12 9 -7
29 -38 44 -68 29 -56 98 -159 131 -195 17 -19 89 -105 123 -149 8 -10 25 -29
38 -42 12 -13 22 -25 22 -28 0 -8 66 -80 120 -130 30 -28 69 -66 87 -84 18
-18 33 -30 33 -26 0 3 16 -11 35 -30 19 -20 35 -34 35 -30 0 3 16 -10 35 -29
20 -20 72 -58 116 -84 44 -26 101 -61 127 -77 66 -40 236 -125 259 -129 10 -2
39 -13 65 -25 26 -12 49 -22 51 -22 3 0 20 -6 38 -14 19 -8 39 -15 44 -16 6
-1 33 -11 60 -22 70 -29 168 -58 174 -53 2 3 10 0 18 -6 7 -6 13 -9 13 -5 0 3
12 1 27 -5 28 -10 131 -25 238 -34 33 -3 85 -9 115 -14 30 -5 78 -8 105 -6 28
2 131 6 230 9 99 4 191 9 205 12 14 2 47 7 73 9 27 3 57 10 67 15 9 5 19 7 22
5 2 -2 26 3 53 11 28 9 59 17 70 18 11 2 46 9 77 15 32 7 60 12 63 11 3 0 18
6 33 14 15 8 50 22 77 31 28 10 75 29 105 44 30 14 58 24 63 23 4 -1 7 3 7 9
0 5 5 7 10 4 6 -3 10 -1 10 6 0 7 3 10 6 7 8 -9 220 102 275 143 25 19 56 41
68 49 13 8 54 39 91 68 38 28 72 52 76 52 16 0 392 388 431 445 178 261 273
424 307 525 10 30 20 62 23 70 4 8 5 18 5 22 -1 5 3 8 8 8 6 0 10 9 10 19 0
11 5 23 11 26 6 4 8 13 5 21 -3 8 -1 14 4 14 6 0 10 5 10 12 0 6 12 40 26 76
25 62 34 101 54 225 6 33 12 62 14 66 3 4 14 72 25 152 22 161 28 523 11 619
-6 30 -13 71 -16 90 -4 29 -11 62 -19 90 -1 3 -5 25 -10 50 -5 25 -9 47 -10
50 -1 3 -5 25 -9 50 -5 25 -13 56 -19 70 -5 14 -12 34 -14 45 -1 11 -7 29 -12
40 -9 18 -68 186 -75 210 -4 16 -46 109 -56 125 -6 8 -15 25 -20 38 -20 48
-147 250 -201 322 -31 41 -58 80 -60 87 -16 47 -340 368 -447 443 -20 14 -43
32 -52 40 -8 8 -49 38 -90 65 -41 28 -80 57 -87 65 -7 8 -13 11 -13 6 0 -5 -7
-3 -15 4 -21 17 -69 45 -135 77 -30 15 -66 34 -80 43 -14 10 -36 21 -48 25
-13 4 -45 16 -70 28 -26 11 -52 22 -58 23 -24 4 -159 48 -169 54 -10 7 -82 27
-125 34 -14 3 -47 10 -75 16 -27 6 -70 15 -95 20 -25 4 -66 13 -92 19 -27 6
-51 11 -55 10 -5 -1 -10 -1 -13 0 -21 8 -413 25 -420 18z m304 -1724 c97 -20
219 -71 301 -126 70 -46 175 -139 175 -154 0 -5 9 -14 20 -21 11 -7 20 -17 20
-23 0 -5 9 -20 20 -31 49 -52 122 -236 138 -343 8 -53 8 -241 0 -287 -34 -200
-160 -409 -318 -527 -19 -14 -37 -29 -40 -32 -21 -26 -219 -113 -282 -124 -18
-4 -49 -10 -69 -14 -50 -11 -204 -11 -264 0 -28 5 -60 11 -73 14 -69 12 -178
59 -258 110 -189 121 -331 327 -379 550 -11 51 -14 247 -5 305 36 216 160 421
332 548 32 23 62 42 68 42 5 0 10 4 10 9 0 9 102 57 170 79 126 41 309 51 434
25z"/>
</g>
</svg>
